<?xml version="1.0" encoding="iso-8859-1"?>
<!-- Generator: Adobe Illustrator 19.0.0, SVG Export Plug-In . SVG Version: 6.00 Build 0)  -->
<svg version="1.1" id="Layer_1" xmlns="http://www.w3.org/2000/svg" xmlns:xlink="http://www.w3.org/1999/xlink" x="0px" y="0px"
	 viewBox="0 0 472.615 472.615" style="enable-background:new 0 0 472.615 472.615;" xml:space="preserve">
<g>
	<g>
		<path d="M236.308,0C105.798,0,0,105.798,0,236.308s105.798,236.308,236.308,236.308c130.509,0,236.308-105.798,236.308-236.308
			S366.816,0,236.308,0z M157.545,130.452c25.904,0,46.981,21.073,46.981,46.976h-19.692c0-15.043-12.241-27.284-27.289-27.284
			c-15.038,0-27.279,12.241-27.279,27.284h-19.692C110.574,151.524,131.641,130.452,157.545,130.452z M331.911,361.543
			c-14.337-28.518-52.75-47.682-95.606-47.682c-42.855,0-81.269,19.159-95.596,47.677l-17.596-8.836
			c17.587-35.01,63.068-58.533,113.192-58.533c50.116,0,95.606,23.523,113.202,58.529L331.911,361.543z M342.344,177.428
			c0-15.043-12.241-27.284-27.279-27.284c-15.039,0-27.28,12.241-27.28,27.284h-19.692c0-25.903,21.068-46.976,46.972-46.976
			c25.903,0,46.971,21.073,46.971,46.976H342.344z"/>
	</g>
</g>
<g>
</g>
<g>
</g>
<g>
</g>
<g>
</g>
<g>
</g>
<g>
</g>
<g>
</g>
<g>
</g>
<g>
</g>
<g>
</g>
<g>
</g>
<g>
</g>
<g>
</g>
<g>
</g>
<g>
</g>
</svg>
