<?xml version="1.0" encoding="iso-8859-1"?>
<!-- Generator: Adobe Illustrator 16.0.0, SVG Export Plug-In . SVG Version: 6.00 Build 0)  -->
<!DOCTYPE svg PUBLIC "-//W3C//DTD SVG 1.1//EN" "http://www.w3.org/Graphics/SVG/1.1/DTD/svg11.dtd">
<svg version="1.1" id="Capa_1" xmlns="http://www.w3.org/2000/svg" xmlns:xlink="http://www.w3.org/1999/xlink" x="0px" y="0px"
	 width="485.453px" height="485.453px" viewBox="0 0 485.453 485.453" style="enable-background:new 0 0 485.453 485.453;"
	 xml:space="preserve">
<g>
	<g>
		<path d="M380.975,56.189c-57.609,0-104.479,46.87-104.479,104.479c0,16.882,4.029,32.84,11.171,46.965l93.308,192.421
			l93.324-192.45c7.133-14.119,11.154-30.064,11.154-46.936C485.453,103.06,438.586,56.189,380.975,56.189z M380.975,240.495
			c-44.014,0-79.828-35.811-79.828-79.826s35.814-79.826,79.828-79.826c44.018,0,79.826,35.811,79.826,79.826
			S424.99,240.495,380.975,240.495z"/>
		<polygon points="380.977,91.655 360.822,132.489 315.764,139.038 348.369,170.819 340.672,215.699 380.977,194.509 
			421.279,215.699 413.58,170.819 446.188,139.038 401.129,132.489 		"/>
		<ellipse cx="38.66" cy="408.441" rx="38.66" ry="10.739"/>
		<ellipse cx="196.364" cy="408.441" rx="60.139" ry="16.705"/>
		<path d="M397.379,388.125l-16.404,33.827l-16.402-33.827c-33.51,2.078-58.562,10.383-58.562,20.317
			c0,11.5,33.564,20.822,74.965,20.822c41.404,0,74.967-9.322,74.967-20.822C455.939,398.507,430.889,390.203,397.379,388.125z"/>
	</g>
</g>
<g>
</g>
<g>
</g>
<g>
</g>
<g>
</g>
<g>
</g>
<g>
</g>
<g>
</g>
<g>
</g>
<g>
</g>
<g>
</g>
<g>
</g>
<g>
</g>
<g>
</g>
<g>
</g>
<g>
</g>
</svg>
