<?xml version='1.0' encoding='iso-8859-1'?>
<svg version="1.1" xmlns="http://www.w3.org/2000/svg" viewBox="0 0 20.587 20.587" xmlns:xlink="http://www.w3.org/1999/xlink" enable-background="new 0 0 20.587 20.587">
  <g>
    <path d="m17.219,1.731c-2.196,0.202-4.445-0.316-6.362-1.562-0.347-0.225-0.78-0.225-1.126,0-1.918,1.246-4.167,1.764-6.363,1.562-0.579-0.053-1.074,0.409-1.074,0.99v8.067c0,4.838 3.436,8.872 8,9.799 4.564-0.927 8-4.961 8-9.799v-8.067c0-0.581-0.496-1.043-1.075-0.99zm-2.254,4.887l-3.776,7.553c-0.144,0.288-0.417,0.488-0.734,0.54-0.053,0.008-0.107,0.013-0.16,0.013-0.263,0-0.518-0.104-0.707-0.293l-3.648-3.647c-0.195-0.195-0.195-0.512 0-0.707l.707-.707c0.195-0.195 0.512-0.195 0.707,0l2.665,2.666 3.156-6.312c0.123-0.247 0.424-0.347 0.671-0.224l.895,.447c0.247,0.123 0.347,0.424 0.224,0.671z"/>
  </g>
</svg>
